<?xml version="1.0" encoding="utf-8"?>
<!-- Generator: Adobe Illustrator 25.0.1, SVG Export Plug-In . SVG Version: 6.00 Build 0)  -->
<svg version="1.1" id="Layer_1" xmlns="http://www.w3.org/2000/svg" xmlns:xlink="http://www.w3.org/1999/xlink" x="0px" y="0px"
	 viewBox="0 0 12 12" style="enable-background:new 0 0 12 12;" xml:space="preserve">
<style type="text/css">
	.st0{fill-rule:evenodd;clip-rule:evenodd;fill:#0D6EFD;}
</style>
<path class="st0" d="M12,6c0,3.3-2.7,6-6,6S0,9.3,0,6s2.7-6,6-6S12,2.7,12,6z M6.4,3c0-0.2-0.2-0.4-0.4-0.4C5.8,2.6,5.6,2.8,5.6,3
	v2.6H3C2.8,5.6,2.6,5.8,2.6,6S2.8,6.4,3,6.4h2.6V9c0,0.2,0.2,0.4,0.4,0.4c0.2,0,0.4-0.2,0.4-0.4V6.4H9c0.2,0,0.4-0.2,0.4-0.4
	c0-0.2-0.2-0.4-0.4-0.4H6.4V3z"/>
</svg>
