<?xml version="1.0" encoding="utf-8"?>
<!-- Generator: Adobe Illustrator 25.0.1, SVG Export Plug-In . SVG Version: 6.00 Build 0)  -->
<svg version="1.1" id="Layer_1" xmlns="http://www.w3.org/2000/svg" xmlns:xlink="http://www.w3.org/1999/xlink" x="0px" y="0px"
	 viewBox="0 0 12 12" style="enable-background:new 0 0 12 12;" xml:space="preserve">
<style type="text/css">
	.st0{fill-rule:evenodd;clip-rule:evenodd;fill:#0D6EFD;}
</style>
<path class="st0" d="M6,2.6c0.2,0,0.4,0.2,0.4,0.4v3c0,0.2-0.2,0.4-0.4,0.4H3C2.8,6.4,2.6,6.2,2.6,6S2.8,5.6,3,5.6h2.6V3
	C5.6,2.8,5.8,2.6,6,2.6z"/>
<path class="st0" d="M5.6,6c0-0.2,0.2-0.4,0.4-0.4h3c0.2,0,0.4,0.2,0.4,0.4c0,0.2-0.2,0.4-0.4,0.4H6.4V9c0,0.2-0.2,0.4-0.4,0.4
	C5.8,9.4,5.6,9.2,5.6,9V6z"/>
<path class="st0" d="M6,11.2c2.9,0,5.2-2.4,5.2-5.2S8.9,0.8,6,0.8S0.8,3.1,0.8,6S3.1,11.2,6,11.2z M6,12c3.3,0,6-2.7,6-6S9.3,0,6,0
	S0,2.7,0,6S2.7,12,6,12z"/>
</svg>
